<?xml version="1.0" encoding="utf-8"?>
<!-- Generator: Adobe Illustrator 19.1.0, SVG Export Plug-In . SVG Version: 6.00 Build 0)  -->
<svg version="1.1" id="Layer_1" xmlns="http://www.w3.org/2000/svg" xmlns:xlink="http://www.w3.org/1999/xlink" x="0px" y="0px"
	 viewBox="-560 112 776 714" style="enable-background:new -560 112 776 714;" xml:space="preserve">
<style type="text/css">
	.st0{fill:url(#Shape_33_);}
	.st1{fill:#A4C2F7;}
	.st2{fill:#E8EDFC;}
	.st3{fill:#CAD9FC;}
	.st4{fill:#7FACFA;}
	.st5{fill:#FFFFFF;}
	.st6{fill:#564C7F;}
</style>
<g id="Icons_copy" transform="translate(1 1)">
	
		<linearGradient id="Shape_33_" gradientUnits="userSpaceOnUse" x1="-100.9944" y1="791.716" x2="-100.3982" y2="790.9915" gradientTransform="matrix(145.1625 0 0 -119.4636 14365.9414 94778.3438)">
		<stop  offset="0" style="stop-color:#D3DFF2"/>
		<stop  offset="0.17" style="stop-color:#D3DFF2"/>
		<stop  offset="0.2" style="stop-color:#D3DFF2"/>
		<stop  offset="0.2" style="stop-color:#DAE2F2"/>
		<stop  offset="0.2" style="stop-color:#EBEAF2"/>
		<stop  offset="0.2" style="stop-color:#F6EFF2"/>
		<stop  offset="0.2" style="stop-color:#FDF2F2"/>
		<stop  offset="0.2" style="stop-color:#FFF3F2"/>
		<stop  offset="0.25" style="stop-color:#FFF3F2"/>
		<stop  offset="0.26" style="stop-color:#FFF3F2"/>
		<stop  offset="0.26" style="stop-color:#D3DFF2"/>
		<stop  offset="0.4" style="stop-color:#D3DFF2"/>
		<stop  offset="0.42" style="stop-color:#D3DFF2"/>
		<stop  offset="0.42" style="stop-color:#DAE2F2"/>
		<stop  offset="0.42" style="stop-color:#EBEAF2"/>
		<stop  offset="0.42" style="stop-color:#F6EFF2"/>
		<stop  offset="0.42" style="stop-color:#FDF2F2"/>
		<stop  offset="0.42" style="stop-color:#FFF3F2"/>
		<stop  offset="0.49" style="stop-color:#FFF3F2"/>
		<stop  offset="0.5" style="stop-color:#FFF3F2"/>
		<stop  offset="0.5" style="stop-color:#F8F0F2"/>
		<stop  offset="0.5" style="stop-color:#E7E8F2"/>
		<stop  offset="0.5" style="stop-color:#DCE3F2"/>
		<stop  offset="0.5" style="stop-color:#D5E0F2"/>
		<stop  offset="0.5" style="stop-color:#D3DFF2"/>
		<stop  offset="0.71" style="stop-color:#D3DFF2"/>
		<stop  offset="0.74" style="stop-color:#D3DFF2"/>
		<stop  offset="0.74" style="stop-color:#FFF3F2"/>
		<stop  offset="0.83" style="stop-color:#FFF3F2"/>
		<stop  offset="0.85" style="stop-color:#FFF3F2"/>
		<stop  offset="0.85" style="stop-color:#D3DFF2"/>
	</linearGradient>
	<path id="Shape" class="st0" d="M-200.9,272.7c-1.1,2.5-2.3,5-3.6,7.4c-30.6,19-76.7,15.5-101.3-7.9c-9.4-7.9-14.9-19.7-14.9-32
		s5.5-24.1,14.9-32c25.2-23.7,71.4-26.5,101.1-7.9C-192.1,222.6-190.7,249.4-200.9,272.7z"/>
	<path id="Shape_1_" class="st1" d="M-204.7,200.4c-17-10-36.9-14-56.5-11.5c12.1,1.3,23.8,5.2,34.2,11.5c12.6,22.2,14,49,3.8,72.3
		c-1.1,2.5-2.3,5-3.6,7.4c-10.5,6.3-22.2,10.2-34.3,11.5c19.6,2.5,39.5-1.5,56.6-11.5c1.3-2.4,2.5-4.8,3.6-7.4
		C-190.8,249.4-192.1,222.6-204.7,200.4z"/>
	<path id="Shape_2_" class="st2" d="M-204.6,280.2c-9.2,16.6-24,29.4-41.7,36.2c-19.6,8-41.5,8-61.1,0l-1-0.4
		c-28.8-12.3-48.1-40.1-49.6-71.4c-0.1-1.4-0.1-2.8,0-4.2c0.1-37.2,25.2-69.6,61.2-79s73.8,6.7,92,39.1
		c-29.7-18.6-76-15.9-101.1,7.9c-9.4,7.9-14.9,19.7-14.9,32s5.5,24.1,14.9,32C-281.3,295.7-235.2,299.2-204.6,280.2L-204.6,280.2z"
		/>
	<path id="Shape_3_" class="st3" d="M-234.4,189.5c10.5,1.6,20.7,5.3,29.8,10.9c-14.3-26-41.7-42.1-71.4-42c-3.6,0-7.2,0.3-10.8,0.8
		C-266.1,162.1-247.3,173-234.4,189.5z"/>
	<path id="Shape_4_" class="st3" d="M-234.3,291.1c-2.3,2.9-4.8,5.6-7.4,8.1c-7.7,7.5-16.9,13.3-26.9,17.2c-6.1,2.4-12.5,4.1-19.1,5
		c14,1.9,28.2,0.2,41.4-5c17.6-6.9,32.3-19.6,41.5-36.2C-213.9,285.7-223.9,289.4-234.3,291.1L-234.3,291.1z"/>
	<path id="Shape_5_" class="st2" d="M-205.5,348.4c-10.6,9.7-20.8,19.7-30.3,29.8c-6.1-8.6,0-21.6-1.3-31.9
		c-1.3-10.3-4.3-20.4-8.8-29.8c10-3.9,19.2-9.7,26.9-17.2C-209.1,312-207.3,333.3-205.5,348.4z"/>
	<path id="Shape_6_" class="st2" d="M-337.9,407.5c-3,2.1-5.9,4.4-8.6,6.9l-14.4-5.7c-7.4-2.9-12.7-9.6-13.8-17.4l-17.5-116.8
		c-1.7-11.1,5.1-21.7,15.9-24.8l18.4-5.3c0.6,12.7,4.3,25.1,10.6,36.2c-2.9,4.8-2.8,6.9-5,20.2c-1.7,9.9-1.1,20.1,1.7,29.8v54.8
		C-350.6,394.5-345.8,402.9-337.9,407.5L-337.9,407.5z"/>
	<path id="Shape_7_" class="st2" d="M-241.1,383.9c-0.5,1-1,1.9-1.6,2.8c-4,6.3-11,10-18.5,10c-6.9,0-6.5-0.7-54.9-24.8
		c-26.3-13.2-40.9-41.9-36.1-70.9c2.2-13.2,2.1-15.3,5-20.2c8.8,15.6,22.6,27.9,39.1,34.9c1.2,7,5.7,13,12.1,16.2l44.7,22.3
		c3.7,1.9,6.9,4.8,9.1,8.3C-238.3,368.9-237.8,377-241.1,383.9z"/>
	<path id="Shape_8_" class="st1" d="M-238.9,400.3V474c0.2,12.5-8.4,23.4-20.6,26.2c-7.7,1.7-15.7-0.2-21.8-5.2
		c-6.1-4.9-9.7-12.4-9.6-20.3v-48.4c0.1-3.5-2.3-6.6-5.7-7.4c0.7,0-34.4-8.5-36.1-9.1c-1.8-0.7-3.6-1.5-5.2-2.6
		c-7.8-4.7-12.6-13.2-12.6-22.3l0-54.3c5.2,17.9,17.7,32.9,34.4,41.2c48.4,24.1,48,24.8,54.9,24.8c7.4,0.1,14.4-3.7,18.5-9.9
		C-240.2,390.8-238.9,395.5-238.9,400.3L-238.9,400.3z"/>
	<path id="Shape_9_" class="st1" d="M-241.1,383.9c3.3-6.8,2.9-14.8-1-21.2c-2.2-3.6-5.3-6.5-9.1-8.3l-44.7-22.3
		c-6.4-3.2-10.9-9.2-12.1-16.2l1,0.4c19.6,8,41.5,8,61.1,0c4.5,9.4,7.5,19.4,8.8,29.8c1,10.3-4.8,23.3,1.3,31.9
		C-237.7,380.2-239.3,381.7-241.1,383.9L-241.1,383.9z"/>
	<path id="Shape_10_" class="st2" d="M-5,270.1c-79,17.6-145.3,68.3-184.4,104.2c-14.4,13.2-35.2,36-49.6,52.1v-26
		c0-4.8-1.4-9.5-3.9-13.6c0.6-0.9,1.1-1.8,1.6-2.8c1.8-1.9,3.4-3.6,5.3-5.5c9.5-10.3,19.6-20.3,30.3-29.8
		c55.1-50.8,123-92.2,194.2-108c7.8-1.3,15.2,3.8,16.9,11.5S2.6,267.6-5,269.7L-5,270.1z"/>
	<path id="Shape_11_" class="st2" d="M-0.7,448.1c2.5,12.6-9,22.3-22.3,22.3c-17,0-27.8-14.9-19.4-27.8c-26.5,4.8-47.6,25-53.4,51.3
		c-5.9,26.3,4.5,53.5,26.5,69.2c21.9,15.6,51.1,16.6,74,2.5c-11.8-4-19.8-14.8-20.3-27.2c-0.4-12.4,6.9-23.8,18.4-28.5
		c11.5-4.7,24.7-1.8,33.2,7.3c0.4-2.9,0.6-5.9,0.6-8.9C36.5,482.7,22.1,459.4-0.7,448.1L-0.7,448.1z M-56.2,530
		c-10.3,0-18.6-8.3-18.6-18.6s8.3-18.6,18.6-18.6s18.6,8.3,18.6,18.6c-0.1,4.9-2.1,9.7-5.7,13.1c-3.6,3.4-8.3,5.3-13.3,5.2
		L-56.2,530z"/>
	<path id="Shape_12_" class="st3" d="M-0.7,448.1c1,4.9-0.3,10-3.6,13.8c11.7,12.3,18.3,28.5,18.5,45.5c8.3-0.1,16.2,3.3,21.8,9.4
		c0.4-2.8,0.6-5.7,0.5-8.6C36.5,482.7,22.1,459.4-0.7,448.1z"/>
	<path id="Shape_13_" class="st3" d="M-15.6,537.1c-0.1-12.2,7.3-23.2,18.7-27.5c-10.1-4.5-21.8-3-30.5,3.9
		c-8.7,6.9-12.8,17.9-10.8,28.8c2,10.9,9.9,19.7,20.4,23c-7.3,4.5-15.5,7.6-24,8.9c3.7,0.7,7.5,1,11.2,1c12.4,0,24.5-3.4,35.1-10
		C-7.5,561.1-15.6,549.8-15.6,537.1L-15.6,537.1z"/>
	<path id="Shape_14_" class="st1" d="M-23,470.1c-17,0-27.8-14.9-19.4-27.8c4-0.7,8-1,12-1c10.3-0.1,20.5,2.3,29.8,6.8
		C1.4,460.7-10.1,470.1-23,470.1z"/>
	<path id="Shape_15_" class="st1" d="M35.9,516.8c-2.6,20.1-14.1,37.9-31.3,48.5c-11.8-4-19.8-14.8-20.3-27.2
		c-0.4-12.4,6.9-23.8,18.4-28.5C14.2,504.8,27.5,507.7,35.9,516.8L35.9,516.8z"/>
	<path id="Shape_16_" class="st2" d="M-186.8,451.7v8.6c-0.1,9.3-5.1,17.9-13.2,22.4s-18,4.5-26-0.2c-8-4.7-12.9-13.4-12.8-22.7V474
		c0.2,12.5-8.4,23.4-20.6,26.2c-7.7,1.7-15.7-0.2-21.8-5.2c-6.1-4.9-9.7-12.4-9.6-20.3v-48.4c0.1-3.5-2.3-6.6-5.7-7.4
		c0.7,0-34.4-8.5-36.1-9.1c-1.8-0.7-3.6-1.5-5.2-2.6c-3,2.1-5.9,4.4-8.6,6.9c-8.8,7.7-16.2,17-21.7,27.3c14.7-3,29.7,4.2,36.5,17.6
		c6.8,13.4,3.9,29.7-7.2,39.9s-27.6,11.7-40.3,3.7c4.3,31.5,23.3,59.1,51.1,74.5c27.9,15.3,61.3,16.6,90.3,3.4
		c-7.8-7.8-10.6-19.3-7.4-29.8c3.2-10.5,12-18.4,22.9-20.5c10.8-2.1,21.9,2,28.8,10.6C-177.3,513.9-174.7,480.8-186.8,451.7
		L-186.8,451.7z M-298.4,560.3c-12.3,0-22.3-10-22.3-22.3c0-12.3,10-22.3,22.3-22.3s22.3,10,22.3,22.3
		C-276.1,550.3-286.1,560.3-298.4,560.3z"/>
	<path id="Shape_17_" class="st3" d="M-379.3,503.2c0,1.6,0.5,3.1,0.8,4.5c1.9-0.3,3.8-0.8,5.7-1.5
		C-375.1,505.5-377.3,504.4-379.3,503.2z"/>
	<path id="Shape_18_" class="st3" d="M-186.8,451.7v8.6c-0.2,9.9-6,18.8-14.9,23.1c1.1,16.4-1.9,32.9-8.8,47.9
		c6.6,1.3,12.6,4.9,17,10C-177,514.2-174.6,480.9-186.8,451.7L-186.8,451.7z"/>
	<path id="Shape_19_" class="st1" d="M-186.8,385.4v74.9c-0.1,14.4-11.9,25.9-26.3,25.8c-14.4-0.1-25.9-11.9-25.8-26.3v-33.5
		c14.4-16.2,35.2-38.9,49.6-52.1C-187.6,377.7-186.8,381.6-186.8,385.4L-186.8,385.4z"/>
	<path id="Shape_20_" class="st4" d="M-189.3,374.3c-5.8,5.4-12.7,12.4-19.8,19.7v66.4c-0.3,9.9-6,18.7-14.9,23
		c3.5,1.7,7.3,2.6,11.2,2.6c14.2-0.1,25.8-11.5,26-25.7v-74.9C-186.8,381.6-187.6,377.7-189.3,374.3L-189.3,374.3z"/>
	<g>
		<path id="Shape_21_" class="st1" d="M-328.2,474.7c0,12.1-6.6,23.3-17.2,29.2s-23.6,5.6-33.9-0.8c-0.7-4.5-1-9-1-13.5
			c-0.1-16.7,4.1-33.1,12-47.7c9.8-2,20.1,0.5,27.8,6.9C-332.7,455.2-328.2,464.7-328.2,474.7z"/>
		<path id="Shape_22_" class="st1" d="M-193.7,541.3c-10.4,17.4-25.8,31.3-44.2,39.7c-7.8-7.8-10.6-19.3-7.4-29.8
			c3.2-10.5,12-18.4,22.9-20.5C-211.6,528.7-200.5,532.7-193.7,541.3L-193.7,541.3z"/>
		<circle id="Oval" class="st1" cx="-56.5" cy="511.1" r="18.6"/>
	</g>
	<path id="Shape_23_" class="st2" d="M-193.6,541.3L-193.6,541.3"/>
	<circle id="Oval_1_" class="st1" cx="-298.4" cy="538" r="22.3"/>
</g>
<path id="Shape_24_" class="st5" d="M-356,504.2c-4.7-33.2,7.6-66.5,32.7-88.6l-14.4-5.8c-7.4-2.9-12.7-9.6-13.8-17.4l-17.5-116.8
	c-1.7-11.1,5.1-21.7,15.9-24.8l18.4-5.3c-0.1-1.4-0.1-2.8,0-4.2c0.1-41.2,30.8-75.9,71.7-81c-6.1-1-12.3-1.3-18.5-0.8
	c-42.7,3.3-75.6,39-75.5,81.9c-0.1,1.4-0.1,2.8,0,4.2l-18.5,5.3c-10.8,3.1-17.6,13.7-15.9,24.8l17.6,116.8
	c1.2,7.9,6.5,14.5,13.8,17.4l14.3,5.7c-25.2,22.1-37.5,55.4-32.7,88.6c7.3,54.1,56.5,92.4,110.7,86.3
	C-313.4,585.3-349.8,549.8-356,504.2z"/>
<path id="Rectangle-path" class="st5" d="M-389.9,334.6l14.7-2.2l8.8,58.9l-14.7,2.2L-389.9,334.6z"/>
<g>
	<path id="Shape_25_" class="st6" d="M-260.2,211.5c0,4.1,3.3,7.4,7.4,7.4c1.2,0,29.8,0,29.8,22.3c0,4.1,3.3,7.4,7.4,7.4
		c4.1,0,7.4-3.3,7.4-7.4c0-29.8-29.2-37.2-44.7-37.2C-256.9,204.1-260.2,207.4-260.2,211.5z"/>
	<path id="Shape_26_" class="st6" d="M-378,370.3c-4.1,0-7.4-3.3-7.4-7.4c0-4.1,3.3-7.4,7.4-7.4s7.4,3.3,7.4,7.4
		C-370.6,367-373.9,370.3-378,370.3z"/>
	<path id="Shape_27_" class="st6" d="M-22,366v-82.8c6.5-1.9,13-3.7,19.7-5.2c8.9-1.9,15.7-8.9,17.3-17.8c1.6-8.9-2.3-17.9-9.9-22.8
		c-5-3.2-11-4.2-16.7-3c-78.7,17.4-144.4,63-185.2,98.2l-2.1,1.9c-1.2-11.7-4.6-23.1-9.9-33.6c4.3-4.8,8.1-10,11.2-15.6
		c1.6-2.7,3-5.6,4.3-8.5c4.9-11.2,7.4-23.2,7.4-35.4c0.2-15.4-3.8-30.5-11.5-43.8v-0.4c-14.7-26-41.5-42.9-71.3-45
		c-29.8-2.1-58.7,10.8-77,34.4c-12,15.3-18.6,34.1-18.8,53.5l-13,3.7c-14.4,4.1-23.4,18.3-21.2,33l8.7,57.9c0.6,4,4.4,6.8,8.4,6.3
		c2-0.3,3.7-1.4,4.9-2.9s1.7-3.6,1.4-5.5l-8.6-57.9c-1.1-7.4,3.4-14.4,10.6-16.5l10-2.8c1.5,9.3,4.4,18.4,8.7,26.8
		c-0.9,2.1-1.6,4.3-2,6.6l-2,12.3c-1.7,10.5-1.2,21.3,1.6,31.6v54c0,6.8,2.1,13.5,6,19.1l-6-2.5c-4.9-2-8.4-6.4-9.2-11.6
		c-0.6-4.1-4.4-6.9-8.6-6.3c-4.1,0.6-6.9,4.4-6.3,8.6c1.6,10.5,8.6,19.3,18.5,23.2l3.7,1.5c-17.9,19.9-27.8,45.7-27.8,72.4
		c0,5,0.4,10,1.1,14.9c0,0.2,0,0.3,0,0.5c4.7,33.6,25.1,63,54.8,79.3c29.7,16.3,65.4,17.7,96.3,3.6c0.3-0.1,0.5-0.2,0.7-0.4
		c19.4-9,35.7-23.5,46.9-41.8c0.5-0.5,0.8-1.1,1-1.7c9.8-16.5,14.9-35.3,14.9-54.5c0-13.4-2.5-26.7-7.4-39.2v-65c0-3-0.5-6.1-1.3-9
		c34.2-31,84-68.4,142.7-89.3V366l-52.8,99.7c-9.2,12.6-14.2,27.9-14.1,43.5c0,27,14.6,51.8,38.2,64.9c23.6,13.1,52.4,12.5,75.3-1.7
		c17.5-10.9,29.7-28.6,33.6-48.9c3.9-20.3-0.8-41.2-13-57.9L-22,366z M-187.1,343.6c39.7-34.1,102.9-78.3,178.6-95
		c1.9-0.4,3.9-0.1,5.5,1c1.7,1,2.9,2.7,3.3,4.7c0.6,2,0.2,4.2-0.9,6s-2.9,3-5,3.4c-9,2-17.9,4.5-26.6,7.4
		c-67.6,21.4-123.8,64.4-161,98.7c-11,10.2-25.4,25.4-37.2,38.3v-6.7c0-4.5-0.9-8.9-2.7-13c1.1-1.2,2.2-2.5,3.6-3.9
		c13.4-14.2,27.5-27.8,42.3-40.5L-187.1,343.6z M-293.8,413l-34.3-8.6h-1.1c-7.7-2.7-12.8-9.9-12.8-18.1l0-25.4
		c6.5,7.7,14.6,14,23.6,18.5l44.7,22.3c4.2,2.2,8.9,3.3,13.6,3.3c5.2,0,10.4-1.4,14.9-4v73.7c0.5,9.3-5.8,17.6-14.9,19.6
		c-5.5,1.1-11.1-0.3-15.5-3.9c-4.3-3.5-6.8-8.8-6.9-14.4v-48.7C-282.6,420.5-287.2,414.6-293.8,413L-293.8,413z M-343.9,303.1
		l0.7-4.2c8.1,9.7,18.3,17.6,29.8,23c2.4,7.6,7.8,14,14.9,17.6l44.7,22.3c2.5,1.3,4.6,3.2,6.1,5.6c3.4,5.7,2.7,12.9-1.8,17.8
		c-4.5,4.9-11.7,6.2-17.6,3.3l-44.7-22.3c-14.7-7.5-25.7-20.7-30.3-36.6C-344.6,320.9-345.3,311.9-343.9,303.1L-343.9,303.1z
		 M-249.3,326.8c2.9,6.8,4.8,14,5.6,21.3v2.5c-1-0.7-2.1-1.3-3.2-1.9l-37.2-18.5c3,0.3,6,0.5,9,0.4
		C-266.3,330.6-257.6,329.3-249.3,326.8z M-230.4,430.2c9.5-10.7,24.3-26.9,37.2-39.9v70.9c-0.1,2.6-0.7,5.1-1.9,7.4
		c-3.7,7.9-12.3,12.2-20.8,10.3c-8.5-1.9-14.5-9.4-14.5-18.1V430.2z M-230,363.2c0-1.1,0-2.2,0.4-3.3c0.7-4.4,1-9,0.7-13.5
		c-1-8.8-3.2-17.3-6.6-25.5c5.4-2.7,10.6-5.9,15.3-9.7c4.2,11.2,6.7,23,7.4,34.9c-5.6,5.9-11.5,11.5-17.3,17.4V363.2z M-209.1,206.9
		c5.6,10.6,8.5,22.4,8.5,34.4c0.1,10.2-2,20.4-6.1,29.8c-0.8,1.7-1.6,3.4-2.6,5c-12.1,6.7-25.8,10.1-39.7,9.9
		c-8.4,0.1-16.7-1.1-24.7-3.6c-9.7-2.7-18.6-7.7-26-14.5c-7.8-6.7-12.3-16.3-12.6-26.6c0.3-10.2,4.8-19.9,12.6-26.6
		c14-12.2,32.1-18.7,50.7-18.1C-235.1,196.5-221.3,200-209.1,206.9z M-333.8,195.5c12.4-15.9,30.7-26,50.7-28.2
		c20-2.2,40,3.9,55.5,16.7c-7-1.5-14.2-2.3-21.4-2.3c-22.4-0.5-44.2,7.5-61,22.3c-10.6,9.5-16.8,23-17.2,37.2
		c0.3,14.2,6.6,27.7,17.2,37.2c9.1,8.4,20,14.6,31.9,18c9.4,2.8,19.2,4.2,29,4.2c7.2,0,14.3-0.8,21.3-2.3
		c-13.3,11.2-30,17.3-47.3,17.3c-9.7,0-19.3-1.9-28.3-5.6c-21.5-8.8-37.7-27.2-43.7-49.8C-353,237.9-348.1,213.9-333.8,195.5z
		 M-360.7,449.7c14.4,0,26,11.7,26,26s-11.7,26-26,26c-3.7,0-7.4-0.8-10.7-2.4c-0.3-2.9-0.4-5.8-0.4-8.8c0-14.2,3.2-28.2,9.4-40.9
		H-360.7z M-368.1,515.8c2.4,0.5,4.9,0.8,7.4,0.8c21.2-0.1,38.9-16.3,40.7-37.5s-12.9-40.2-33.8-43.8c3.8-5.2,8.2-10,13.1-14.3
		c1.4-1.3,3-2.5,4.6-3.8l1.9,0.8c0.9,0.3,1.8,0.6,2.7,0.8l34.2,8.4v48.4c0,8.9,3.5,17.4,9.8,23.7c6.3,6.3,14.8,9.8,23.7,9.8
		c2.3,0,4.6-0.2,6.8-0.7c11.4-2.4,20.6-10.6,24.5-21.6c5.8,4.8,13.1,7.4,20.7,7.4c10.1,0.1,19.7-4.4,26-12.1c0,2.8,0.4,5.6,0.4,8.4
		c0,13.8-3.1,27.4-9.1,39.8c-6.2-4.2-13.6-6.4-21.1-6.3c-13,0.1-24.9,6.9-31.6,18c-6.7,11.1-7.1,24.9-1.2,36.4
		c-9.8,3.4-20.1,5.2-30.4,5.2c-41.6-0.1-78.1-27.7-89.5-67.8L-368.1,515.8z M-234.6,572.6c-2.1-3.4-3.2-7.3-3.3-11.2
		c0-12.3,10-22.3,22.3-22.3c4.8,0,9.4,1.5,13.2,4.4c-8.4,12.1-19.5,22.1-32.4,29.2H-234.6z M-36.5,450.1c2.3-0.3,4.7-0.4,7-0.4
		c7.7,0,15.2,1.4,22.3,4.3c-2.1,6.3-8.3,10.3-14.9,9.7c-8,0-14.9-5.1-14.9-11.2C-36.9,451.7-36.7,450.9-36.5,450.1z M0.7,441.4
		c-9.5-4.3-19.8-6.6-30.2-6.6c-4.3,0-8.6,0.4-12.8,1.2h-1c-5.7,1.1-11.3,2.9-16.7,5.3l30.5-57.5L0.7,441.4z M-89,509.2
		c0-24.3,14.7-46.1,37.2-55.2c1.9,14.7,14.9,25.5,29.8,24.6c11.9,0.3,22.8-6.4,27.8-17.2c13.8,10.1,22.7,25.6,24.3,42.6
		c-4.7-2.1-9.8-3.1-14.9-3.1c-15.3,0-29,9.4-34.6,23.7s-1.8,30.4,9.4,40.8c-6.3,2.2-12.9,3.4-19.5,3.3
		C-62.4,568.8-89,542.1-89,509.2z M4.8,557.8c-7.7-3.8-12.4-11.7-12.3-20.3c0.1-8.6,5.2-16.3,12.9-19.9s16.9-2.4,23.5,3
		C26,535.7,17.3,549,4.8,557.8L4.8,557.8z"/>
	<path id="Shape_28_" class="st6" d="M-55.5,486c-14.4,0-26,11.7-26,26c0,14.4,11.7,26,26,26s26-11.7,26-26
		C-29.5,497.7-41.1,486-55.5,486z M-55.5,523.2c-6.2,0-11.2-5-11.2-11.2c0-6.2,5-11.2,11.2-11.2s11.2,5,11.2,11.2
		C-44.4,518.2-49.4,523.2-55.5,523.2z"/>
	<path id="Shape_29_" class="st6" d="M-297.4,509.2c-16.4,0-29.8,13.3-29.8,29.8s13.3,29.8,29.8,29.8c16.4,0,29.8-13.3,29.8-29.8
		S-281,509.2-297.4,509.2z M-297.4,553.9c-8.2,0-14.9-6.7-14.9-14.9c0-8.2,6.7-14.9,14.9-14.9s14.9,6.7,14.9,14.9
		C-282.5,547.2-289.2,553.9-297.4,553.9z"/>
	<path id="Shape_30_" class="st6" d="M-133.7,204.1c-4.1,0-7.4,3.3-7.4,7.4v7.4h-7.4c-4.1,0-7.4,3.3-7.4,7.4c0,4.1,3.3,7.4,7.4,7.4
		h7.4v7.4c0,4.1,3.3,7.4,7.4,7.4c4.1,0,7.4-3.3,7.4-7.4v-7.4h7.4c4.1,0,7.4-3.3,7.4-7.4c0-4.1-3.3-7.4-7.4-7.4h-7.4v-7.4
		C-126.2,207.4-129.6,204.1-133.7,204.1z"/>
	<path id="Shape_31_" class="st6" d="M-96.5,390.1v7.4c0,4.1,3.3,7.4,7.4,7.4c4.1,0,7.4-3.3,7.4-7.4v-7.4h7.4c4.1,0,7.4-3.3,7.4-7.4
		c0-4.1-3.3-7.4-7.4-7.4h-7.4v-7.4c0-4.1-3.3-7.4-7.4-7.4c-4.1,0-7.4,3.3-7.4,7.4v7.4h-7.4c-4.1,0-7.4,3.3-7.4,7.4
		c0,4.1,3.3,7.4,7.4,7.4H-96.5z"/>
	<path id="Shape_32_" class="st6" d="M0.3,159.4c-4.1,0-7.4,3.3-7.4,7.4v7.4h-7.4c-4.1,0-7.4,3.3-7.4,7.4c0,4.1,3.3,7.4,7.4,7.4h7.4
		v7.4c0,4.1,3.3,7.4,7.4,7.4s7.4-3.3,7.4-7.4v-7.4h7.4c4.1,0,7.4-3.3,7.4-7.4c0-4.1-3.3-7.4-7.4-7.4H7.7v-7.4
		C7.7,162.8,4.4,159.4,0.3,159.4z"/>
</g>
<g>
	<path class="st5" d="M-509.7,801.2c-9.5,0-20.1-3.2-29-10.2l8.2-12.6c7.3,5.3,15,8.1,21.3,8.1c5.6,0,8.1-2,8.1-5v-0.3
		c0-4.2-6.6-5.6-14-7.8c-9.5-2.8-20.2-7.2-20.2-20.3v-0.3c0-13.8,11.1-21.5,24.7-21.5c8.6,0,17.9,2.9,25.2,7.8l-7.3,13.3
		c-6.7-3.9-13.4-6.3-18.3-6.3c-4.7,0-7.1,2-7.1,4.7v0.3c0,3.8,6.4,5.6,13.8,8.1c9.5,3.2,20.4,7.7,20.4,20.1v0.3
		C-483.8,794.4-495.1,801.2-509.7,801.2z"/>
	<path class="st5" d="M-417.2,801.2c-10.2,0-16.5-4.7-21.1-10.1v29h-19.2v-87.8h19.2v9.7c4.7-6.3,11.1-11,21.1-11
		c15.8,0,30.8,12.4,30.8,35v0.3C-386.4,788.8-401.2,801.2-417.2,801.2z M-405.6,766c0-11.2-7.6-18.7-16.5-18.7s-16.4,7.4-16.4,18.7
		v0.3c0,11.2,7.4,18.7,16.4,18.7s16.5-7.3,16.5-18.7V766z"/>
	<path class="st5" d="M-320,799.9v-7.3c-4.7,5.2-11.1,8.6-20.4,8.6c-12.7,0-23.2-7.3-23.2-20.7v-0.3c0-14.8,11.2-21.6,27.3-21.6
		c6.8,0,11.7,1.1,16.5,2.8v-1.1c0-7.9-4.9-12.4-14.5-12.4c-7.3,0-12.5,1.4-18.7,3.7l-4.8-14.6c7.4-3.3,14.8-5.4,26.2-5.4
		c20.9,0,30.2,10.9,30.2,29.2v39.2H-320z M-319.6,772.7c-3.3-1.5-7.6-2.5-12.2-2.5c-8.2,0-13.3,3.3-13.3,9.3v0.3
		c0,5.2,4.3,8.2,10.5,8.2c9,0,15-4.9,15-11.9V772.7z"/>
	<path class="st5" d="M-240.4,801.5c-20.3,0-35.2-15.6-35.2-35v-0.3c0-19.3,14.8-35.2,35.5-35.2c12.7,0,20.7,4.3,27,11.4l-11.7,12.6
		c-4.3-4.5-8.6-7.4-15.4-7.4c-9.6,0-16.4,8.5-16.4,18.4v0.3c0,10.3,6.7,18.7,17.2,18.7c6.4,0,10.9-2.8,15.5-7.2l11.2,11.4
		C-219.3,796.3-226.9,801.5-240.4,801.5z"/>
	<path class="st5" d="M-126.7,772.8h-47.1c1.9,8.7,8,13.3,16.5,13.3c6.4,0,11.1-2,16.4-6.9l11,9.7c-6.3,7.8-15.4,12.6-27.6,12.6
		c-20.3,0-35.3-14.3-35.3-35v-0.3c0-19.3,13.8-35.2,33.4-35.2c22.6,0,32.9,17.5,32.9,36.7v0.3C-126.4,769.9-126.6,771-126.7,772.8z
		 M-159.4,746.4c-7.9,0-13.1,5.7-14.6,14.4h28.9C-146.3,752.2-151.3,746.4-159.4,746.4z"/>
	<path class="st5" d="M-101.2,820.5c-3.5,0-5.7-0.3-8.3-0.8v-15c1.5,0.3,2.6,0.4,4,0.4c4,0,6.8-2.1,6.8-7.8v-65h19.2v66.5
		C-79.5,813.7-87.1,820.5-101.2,820.5z M-99.2,724.9v-17H-79v17H-99.2z"/>
	<path class="st5" d="M-15.7,801.5c-20.9,0-36.5-15.5-36.5-35v-0.3c0-19.4,15.6-35.2,36.7-35.2c20.9,0,36.5,15.5,36.5,35v0.3
		C21.1,785.7,5.4,801.5-15.7,801.5z M2.1,766.2c0-10-7.2-18.7-17.8-18.7c-11,0-17.5,8.5-17.5,18.4v0.3c0,10,7.2,18.7,17.8,18.7
		c11,0,17.5-8.5,17.5-18.4V766.2z"/>
	<path class="st5" d="M87.8,801.2c-10.2,0-16.5-4.7-21.1-10.1v8.8H47.6v-92.1h19.2V742c4.7-6.3,11.1-11,21.1-11
		c15.8,0,30.8,12.4,30.8,35v0.3C118.6,788.8,103.8,801.2,87.8,801.2z M99.4,766c0-11.2-7.6-18.7-16.5-18.7s-16.4,7.4-16.4,18.7v0.3
		c0,11.2,7.4,18.7,16.4,18.7s16.5-7.3,16.5-18.7V766z"/>
	<path class="st5" d="M169.1,801.2c-9.5,0-20.1-3.2-29-10.2l8.2-12.6c7.3,5.3,15,8.1,21.3,8.1c5.6,0,8.1-2,8.1-5v-0.3
		c0-4.2-6.6-5.6-14-7.8c-9.5-2.8-20.2-7.2-20.2-20.3v-0.3c0-13.8,11.1-21.5,24.7-21.5c8.6,0,17.9,2.9,25.2,7.8l-7.3,13.3
		c-6.7-3.9-13.4-6.3-18.3-6.3c-4.7,0-7.1,2-7.1,4.7v0.3c0,3.8,6.4,5.6,13.8,8.1c9.5,3.2,20.4,7.7,20.4,20.1v0.3
		C195,794.4,183.7,801.2,169.1,801.2z"/>
</g>
</svg>
