<?xml version="1.0" encoding="utf-8"?>
<!-- Generator: Adobe Illustrator 19.1.0, SVG Export Plug-In . SVG Version: 6.00 Build 0)  -->
<svg version="1.1" id="Layer_1" xmlns="http://www.w3.org/2000/svg" xmlns:xlink="http://www.w3.org/1999/xlink" x="0px" y="0px"
	 viewBox="-67.4 121.1 547.5 550.5" style="enable-background:new -67.4 121.1 547.5 550.5;" xml:space="preserve">
<style type="text/css">
	.st0{fill:url(#Shape_33_);}
	.st1{fill:#A4C2F7;}
	.st2{fill:#E8EDFC;}
	.st3{fill:#CAD9FC;}
	.st4{fill:#7FACFA;}
	.st5{fill:#FFFFFF;}
	.st6{fill:#603EEC;}
</style>
<g id="Icons_copy" transform="translate(1 1)">
	
		<linearGradient id="Shape_33_" gradientUnits="userSpaceOnUse" x1="-196.8385" y1="1.2361" x2="-196.1548" y2="2.0667" gradientTransform="matrix(145.1625 0 0 119.4636 28639.0293 45.7084)">
		<stop  offset="0" style="stop-color:#D3DFF2"/>
		<stop  offset="0.17" style="stop-color:#D3DFF2"/>
		<stop  offset="0.2" style="stop-color:#D3DFF2"/>
		<stop  offset="0.2" style="stop-color:#DAE2F2"/>
		<stop  offset="0.2" style="stop-color:#EBEAF2"/>
		<stop  offset="0.2" style="stop-color:#F6EFF2"/>
		<stop  offset="0.2" style="stop-color:#FDF2F2"/>
		<stop  offset="0.2" style="stop-color:#FFF3F2"/>
		<stop  offset="0.25" style="stop-color:#FFF3F2"/>
		<stop  offset="0.26" style="stop-color:#FFF3F2"/>
		<stop  offset="0.26" style="stop-color:#D3DFF2"/>
		<stop  offset="0.4" style="stop-color:#D3DFF2"/>
		<stop  offset="0.42" style="stop-color:#D3DFF2"/>
		<stop  offset="0.42" style="stop-color:#DAE2F2"/>
		<stop  offset="0.42" style="stop-color:#EBEAF2"/>
		<stop  offset="0.42" style="stop-color:#F6EFF2"/>
		<stop  offset="0.42" style="stop-color:#FDF2F2"/>
		<stop  offset="0.42" style="stop-color:#FFF3F2"/>
		<stop  offset="0.49" style="stop-color:#FFF3F2"/>
		<stop  offset="0.5" style="stop-color:#FFF3F2"/>
		<stop  offset="0.5" style="stop-color:#F8F0F2"/>
		<stop  offset="0.5" style="stop-color:#E7E8F2"/>
		<stop  offset="0.5" style="stop-color:#DCE3F2"/>
		<stop  offset="0.5" style="stop-color:#D5E0F2"/>
		<stop  offset="0.5" style="stop-color:#D3DFF2"/>
		<stop  offset="0.71" style="stop-color:#D3DFF2"/>
		<stop  offset="0.74" style="stop-color:#D3DFF2"/>
		<stop  offset="0.74" style="stop-color:#FFF3F2"/>
		<stop  offset="0.83" style="stop-color:#FFF3F2"/>
		<stop  offset="0.85" style="stop-color:#FFF3F2"/>
		<stop  offset="0.85" style="stop-color:#D3DFF2"/>
	</linearGradient>
	<path id="Shape" class="st0" d="M172.9,280.1c-1.3,2.9-2.6,5.7-4.2,8.5c-35.1,21.8-88,17.7-116.1-9c-10.8-9.1-17.1-22.5-17.1-36.7
		c0-14.2,6.3-27.6,17.1-36.7c28.8-27.2,81.9-30.4,116-9C183,222.6,184.6,253.3,172.9,280.1z"/>
	<path id="Shape_1_" class="st1" d="M168.5,197.2c-19.5-11.5-42.3-16.1-64.8-13.1c13.9,1.4,27.2,5.9,39.2,13.1
		c14.5,25.4,16.1,56.2,4.4,82.9c-1.3,2.9-2.6,5.7-4.2,8.5c-12,7.2-25.4,11.7-39.3,13.2c22.5,2.9,45.3-1.8,64.9-13.2
		c1.5-2.7,2.9-5.5,4.2-8.5C184.5,253.3,182.9,222.6,168.5,197.2z"/>
	<path id="Shape_2_" class="st2" d="M168.6,288.6c-10.6,19-27.5,33.7-47.8,41.5c-22.5,9.1-47.6,9.1-70.1,0l-1.1-0.5
		c-33-14.1-55.1-45.9-56.8-81.8c-0.1-1.6-0.1-3.2,0-4.9c0.1-42.6,29-79.9,70.2-90.6c41.3-10.7,84.6,7.7,105.5,44.9
		c-34-21.3-87.1-18.2-116,9c-10.8,9.1-17.1,22.5-17.1,36.7c0,14.2,6.3,27.6,17.1,36.7C80.7,306.4,133.6,310.4,168.6,288.6
		L168.6,288.6z"/>
	<path id="Shape_3_" class="st3" d="M134.5,184.7c12.1,1.9,23.7,6.1,34.1,12.5c-16.4-29.8-47.9-48.3-81.9-48.1
		c-4.1,0-8.3,0.3-12.4,0.9C98.1,153.3,119.7,165.7,134.5,184.7z"/>
	<path id="Shape_4_" class="st3" d="M134.6,301.1c-2.6,3.3-5.5,6.4-8.5,9.3c-8.9,8.6-19.4,15.3-30.9,19.7c-7,2.8-14.4,4.7-21.8,5.7
		c16,2.2,32.4,0.2,47.4-5.7c20.2-7.9,37-22.5,47.5-41.5C158,294.9,146.6,299.2,134.6,301.1L134.6,301.1z"/>
	<path id="Shape_5_" class="st2" d="M167.6,366.8c-12.2,11.1-23.8,22.6-34.7,34.1c-7-9.8,0-24.7-1.5-36.5s-4.9-23.4-10.1-34.1
		c11.5-4.4,22-11.1,30.8-19.7C163.5,325.1,165.5,349.5,167.6,366.8z"/>
	<path id="Shape_6_" class="st2" d="M15.8,434.6c-3.4,2.4-6.7,5.1-9.8,7.9l-16.6-6.5c-8.5-3.4-14.5-11-15.9-20l-20.1-133.9
		c-1.9-12.7,5.9-24.9,18.3-28.4l21.1-6.1c0.7,14.6,4.9,28.8,12.1,41.5c-3.3,5.5-3.2,7.9-5.7,23.1c-1.9,11.4-1.3,23.1,2,34.1v62.8
		C1.2,419.7,6.8,429.3,15.8,434.6L15.8,434.6z"/>
	<path id="Shape_7_" class="st2" d="M126.8,407.5c-0.6,1.1-1.2,2.1-1.9,3.2c-4.6,7.2-12.6,11.5-21.2,11.4c-7.9,0-7.5-0.8-63-28.4
		c-30.1-15.1-46.9-48.1-41.3-81.3c2.5-15.2,2.4-17.6,5.7-23.1c10.1,17.9,25.9,31.9,44.8,40c1.4,8.1,6.5,15,13.8,18.6l51.2,25.6
		c4.3,2.1,7.9,5.5,10.4,9.6C130,390.4,130.6,399.6,126.8,407.5z"/>
	<path id="Shape_8_" class="st1" d="M129.3,426.4v84.5c0.2,14.3-9.7,26.9-23.6,30c-8.8,1.9-18-0.3-25-5.9
		c-7-5.7-11.1-14.2-11.1-23.2v-55.5c0.1-4-2.6-7.6-6.5-8.5c0.9,0-39.4-9.7-41.4-10.4c-2.1-0.8-4.1-1.8-6-3
		c-9-5.4-14.5-15.1-14.4-25.6v-62.3c6,20.6,20.3,37.7,39.4,47.3c55.5,27.6,55,28.4,63,28.4c8.5,0.1,16.5-4.2,21.2-11.3
		C127.8,415.4,129.3,420.9,129.3,426.4L129.3,426.4z"/>
	<path id="Shape_9_" class="st1" d="M126.8,407.5c3.8-7.8,3.4-17-1.2-24.3c-2.5-4.1-6.1-7.4-10.4-9.6L64,348
		c-7.3-3.6-12.4-10.6-13.8-18.6l1.1,0.5c22.5,9.1,47.6,9.1,70.1,0c5.2,10.8,8.6,22.3,10.1,34.1c1.1,11.8-5.5,26.7,1.5,36.5
		C130.7,403.3,128.8,405,126.8,407.5L126.8,407.5z"/>
	<path id="Shape_10_" class="st2" d="M397.5,277c-90.5,20.1-166.6,78.3-211.4,119.5c-16.5,15.2-40.4,41.3-56.8,59.7v-29.9
		c0-5.5-1.5-10.9-4.4-15.6c0.7-1,1.3-2,1.9-3.2c2-2.1,3.9-4.2,6.1-6.3c10.9-11.8,22.5-23.3,34.7-34.1
		c63.2-58.2,141-105.7,222.6-123.8c8.9-1.5,17.5,4.3,19.4,13.2c1.9,8.8-3.3,17.7-12.1,20.1V277z"/>
	<path id="Shape_11_" class="st2" d="M402.4,481.2c2.8,14.4-10.3,25.6-25.6,25.6c-19.5,0-31.9-17.1-22.3-31.9
		c-30.4,5.5-54.5,28.7-61.3,58.8c-6.8,30.1,5.2,61.4,30.3,79.3c25.1,17.9,58.6,19.1,84.9,2.9c-13.5-4.5-22.8-17-23.2-31.2
		c-0.5-14.2,8-27.3,21.1-32.7c13.2-5.4,28.3-2.1,38,8.4c0.5-3.4,0.7-6.8,0.7-10.2C445.1,520.9,428.6,494.1,402.4,481.2L402.4,481.2z
		 M338.8,575c-11.8,0-21.3-9.6-21.3-21.3c0-11.8,9.6-21.3,21.3-21.3s21.3,9.6,21.3,21.3c-0.1,5.7-2.4,11.1-6.5,15s-9.6,6.1-15.2,6
		L338.8,575z"/>
	<path id="Shape_12_" class="st3" d="M402.4,481.2c1.1,5.6-0.4,11.5-4.1,15.9c13.4,14,21,32.7,21.2,52.1c9.5-0.1,18.6,3.8,25,10.8
		c0.5-3.3,0.7-6.5,0.6-9.8C445.1,520.9,428.6,494.1,402.4,481.2z"/>
	<path id="Shape_13_" class="st3" d="M385.3,583.2c-0.2-14,8.4-26.6,21.4-31.6c-11.6-5.1-25-3.4-35,4.5s-14.7,20.6-12.4,33
		s11.3,22.6,23.4,26.3c-8.4,5.2-17.7,8.7-27.5,10.2c4.2,0.8,8.6,1.2,12.9,1.2c14.2,0,28.1-3.9,40.2-11.4
		C394.6,610.8,385.4,597.8,385.3,583.2L385.3,583.2z"/>
	<path id="Shape_14_" class="st1" d="M376.8,506.4c-19.5,0-31.9-17.1-22.3-31.9c4.5-0.8,9.1-1.2,13.7-1.2
		c11.8-0.1,23.5,2.6,34.1,7.8C404.8,495.6,391.6,506.4,376.8,506.4z"/>
	<path id="Shape_15_" class="st1" d="M444.4,559.9c-3,23-16.2,43.4-35.9,55.6c-13.5-4.5-22.8-17-23.2-31.2
		c-0.5-14.2,8-27.3,21.1-32.7C419.5,546.1,434.7,549.5,444.4,559.9L444.4,559.9z"/>
	<path id="Shape_16_" class="st2" d="M189.1,485.2v9.9c-0.1,10.7-5.9,20.5-15.2,25.7c-9.3,5.3-20.7,5.2-29.9-0.3
		c-9.2-5.4-14.8-15.3-14.7-26v16.2c0.2,14.3-9.7,26.9-23.6,30c-8.8,1.9-18-0.3-25-5.9c-7-5.7-11.1-14.2-11.1-23.2v-55.5
		c0.1-4-2.6-7.6-6.5-8.5c0.9,0-39.4-9.7-41.4-10.4c-2.1-0.8-4.1-1.8-6-3c-3.4,2.4-6.7,5.1-9.8,7.9C-4.2,451-12.7,461.6-19,473.4
		c16.9-3.4,34,4.9,41.8,20.2s4.4,34.1-8.3,45.7s-31.6,13.4-46.3,4.3c4.9,36.1,26.7,67.8,58.6,85.4c31.9,17.6,70.3,19,103.5,3.9
		c-8.9-8.9-12.2-22.1-8.5-34.2c3.7-12.1,13.8-21.1,26.2-23.5s25.1,2.3,33,12.2C200,556.6,202.9,518.7,189.1,485.2L189.1,485.2z
		 M61.1,609.8c-14.1,0-25.6-11.5-25.6-25.6s11.5-25.6,25.6-25.6s25.6,11.5,25.6,25.6C86.7,598.4,75.2,609.8,61.1,609.8z"/>
	<path id="Shape_17_" class="st3" d="M-31.7,544.3c0,1.8,0.6,3.5,0.9,5.2c2.2-0.4,4.4-0.9,6.5-1.7
		C-26.9,546.9-29.4,545.8-31.7,544.3z"/>
	<path id="Shape_18_" class="st3" d="M189.1,485.2v9.9c-0.2,11.3-6.8,21.6-17.1,26.5c1.3,18.8-2.2,37.7-10.1,54.9
		c7.6,1.5,14.5,5.6,19.5,11.5C200.2,556.9,203.1,518.8,189.1,485.2L189.1,485.2z"/>
	<path id="Shape_19_" class="st1" d="M189.1,409.3v85.8c-0.1,16.5-13.6,29.8-30.1,29.6s-29.8-13.6-29.6-30.1v-38.4
		c16.5-18.5,40.4-44.6,56.8-59.7C188.1,400.5,189.1,404.9,189.1,409.3L189.1,409.3z"/>
	<path id="Shape_20_" class="st4" d="M186.2,396.5c-6.7,6.1-14.6,14.2-22.7,22.6v76.1c-0.3,11.3-6.9,21.5-17.1,26.4
		c4,1.9,8.4,3,12.8,3c16.3-0.1,29.5-13.2,29.9-29.4v-85.8C189.1,404.9,188.1,400.5,186.2,396.5L186.2,396.5z"/>
	<g>
		<path id="Shape_21_" class="st1" d="M26.9,511.7c0,13.9-7.6,26.7-19.7,33.5s-27,6.4-38.9-0.9c-0.8-5.1-1.1-10.3-1.1-15.5
			c-0.1-19.1,4.7-37.9,13.7-54.7c11.3-2.3,23,0.6,31.9,7.9S26.9,500.2,26.9,511.7z"/>
		<path id="Shape_22_" class="st1" d="M181.1,588c-11.9,20-29.6,35.9-50.7,45.6c-8.9-8.9-12.2-22.1-8.5-34.2
			c3.7-12.1,13.8-21.1,26.2-23.5C160.6,573.5,173.3,578.2,181.1,588L181.1,588z"/>
		<circle id="Oval" class="st1" cx="338.4" cy="553.3" r="21.3"/>
	</g>
	<path id="Shape_23_" class="st2" d="M181.2,588.1L181.2,588.1"/>
	<circle id="Oval_1_" class="st1" cx="61.1" cy="584.2" r="25.6"/>
</g>
<path id="Shape_24_" class="st5" d="M-5.1,545.3c-5.4-38,8.7-76.2,37.5-101.5l-16.5-6.7c-8.5-3.4-14.5-11-15.9-20l-20.1-133.9
	c-1.9-12.7,5.9-24.9,18.3-28.4l21.1-6.1c-0.1-1.6-0.1-3.2,0-4.9c0.1-47.2,35.3-87,82.2-92.9c-7-1.1-14.2-1.4-21.2-0.9
	c-49,3.8-86.7,44.8-86.5,93.9c-0.1,1.6-0.1,3.2,0,4.9l-21.2,6.1c-12.4,3.5-20.2,15.7-18.3,28.4l20.2,133.9c1.4,9,7.4,16.6,15.9,20
	l16.4,6.6c-28.8,25.3-43,63.5-37.5,101.5c8.4,62,64.8,105.9,127,98.9C43.7,638.4,2,597.6-5.1,545.3z"/>
<path id="Rectangle-path" class="st5" d="M-44,350.9l16.9-2.5l10.1,67.5l-16.9,2.5L-44,350.9z"/>
<g>
	<path id="Shape_25_" class="st6" d="M104.7,209.8c0,4.7,3.8,8.5,8.5,8.5c1.4,0,34.1,0,34.1,25.6c0,4.7,3.8,8.5,8.5,8.5
		s8.5-3.8,8.5-8.5c0-34.1-33.5-42.7-51.2-42.7C108.6,201.2,104.7,205.1,104.7,209.8z"/>
	<path id="Shape_26_" class="st6" d="M-30.3,391.9c-4.7,0-8.5-3.8-8.5-8.5s3.8-8.5,8.5-8.5s8.5,3.8,8.5,8.5S-25.6,391.9-30.3,391.9z
		"/>
	<path id="Shape_27_" class="st6" d="M377.8,386.8v-94.9c7.4-2.2,14.9-4.3,22.6-6c10.2-2.1,18-10.2,19.9-20.4
		c1.9-10.2-2.6-20.5-11.4-26.2c-5.7-3.6-12.6-4.9-19.2-3.4c-90.3,20-165.5,72.3-212.3,112.6l-2.4,2.1c-1.4-13.4-5.2-26.5-11.3-38.6
		c4.9-5.5,9.3-11.5,12.9-17.9c1.8-3.1,3.5-6.4,4.9-9.7c5.6-12.8,8.5-26.6,8.5-40.6c0.2-17.6-4.4-34.9-13.2-50.2v-0.5
		c-16.9-29.8-47.6-49.1-81.7-51.6s-67.3,12.3-88.3,39.4c-13.7,17.6-21.3,39.2-21.5,61.5l-14.9,4.3c-16.5,4.7-26.9,20.9-24.3,37.9
		l10,66.4c0.7,4.6,5,7.8,9.6,7.2c2.2-0.3,4.3-1.6,5.6-3.4s1.9-4.1,1.6-6.4L-37,282c-1.3-8.5,3.9-16.6,12.1-18.9l11.5-3.2
		c1.7,10.6,5,20.9,9.9,30.6c-1.1,2.4-1.8,5-2.3,7.6l-2.3,14.1c-2,12.1-1.4,24.4,1.9,36.2v61.9c0,7.8,2.4,15.4,6.9,21.8l-6.9-2.9
		c-5.6-2.2-9.7-7.3-10.6-13.3c-0.7-4.7-5.1-8-9.8-7.3s-8,5.1-7.3,9.8c1.8,12,9.9,22.1,21.2,26.6l4.3,1.7
		c-20.6,22.8-31.9,52.4-31.9,83c0,5.7,0.4,11.4,1.3,17.1c0,0.2,0,0.4,0,0.6c5.4,38.5,28.7,72.2,62.8,90.9s75,20.3,110.4,4.2
		c0.3-0.1,0.6-0.2,0.9-0.4c22.3-10.3,41-26.9,53.8-47.9c0.5-0.6,0.9-1.2,1.2-2c11.2-18.9,17.1-40.5,17.1-62.5
		c0-15.4-2.9-30.7-8.5-45v-74.5c0-3.5-0.6-7-1.5-10.3c39.2-35.6,96.3-78.4,163.7-102.4v89.3l-60.5,114.3
		c-10.6,14.5-16.3,32-16.2,49.9c0,30.9,16.8,59.4,43.8,74.4c27,15.1,60,14.3,86.3-1.9c20.1-12.5,34.1-32.8,38.6-56
		s-0.9-47.3-14.9-66.3L377.8,386.8z M188.5,361.2c45.6-39.1,118-89.8,204.8-108.9c2.2-0.5,4.4-0.1,6.3,1.1c2,1.2,3.3,3.1,3.8,5.4
		c0.6,2.3,0.3,4.8-1,6.8s-3.4,3.4-5.7,3.8c-10.3,2.3-20.6,5.2-30.5,8.5c-77.6,24.6-142,73.9-184.7,113.3
		c-12.6,11.7-29.1,29.1-42.7,43.9v-7.7c0-5.1-1.1-10.2-3.1-14.9c1.3-1.4,2.6-2.8,4.2-4.4c15.3-16.3,31.6-31.8,48.6-46.4V361.2z
		 M66.2,440.8L26.9,431h-1.3c-8.8-3.1-14.7-11.4-14.7-20.7v-29.1c7.5,8.8,16.7,16,27.1,21.2L89.2,428c4.8,2.5,10.2,3.8,15.6,3.8
		c6,0,11.9-1.6,17.1-4.6v84.3c0.6,10.7-6.7,20.2-17.1,22.5c-6.3,1.2-12.8-0.4-17.7-4.4c-5-4-7.8-10.1-7.9-16.5v-55.9
		C79.1,449.4,73.7,442.6,66.2,440.8L66.2,440.8z M8.8,314.7l0.8-4.9c9.3,11.1,21,20.1,34.1,26.4c2.7,8.8,8.9,16.1,17.1,20.2L112,382
		c2.9,1.5,5.3,3.7,7,6.4c4,6.5,3.1,14.8-2,20.4c-5.1,5.6-13.4,7.1-20.2,3.7L45.6,387c-16.9-8.6-29.5-23.8-34.7-42
		C7.9,335.2,7.2,324.9,8.8,314.7L8.8,314.7z M117.3,341.9c3.3,7.8,5.5,16,6.4,24.4v2.8c-1.2-0.8-2.4-1.5-3.7-2.1l-42.7-21.2
		c3.4,0.4,6.9,0.5,10.3,0.5C97.7,346.3,107.7,344.8,117.3,341.9z M138.9,460.5c10.9-12.3,27.8-30.8,42.7-45.7v81.3
		c-0.1,3-0.8,5.9-2.1,8.5c-4.2,9.1-14.1,14-23.9,11.8c-9.7-2.2-16.7-10.8-16.7-20.8V460.5z M139.4,383.7c0-1.3,0-2.5,0.5-3.8
		c0.9-5.1,1.1-10.3,0.9-15.4c-1.2-10-3.7-19.9-7.6-29.2c6.2-3.1,12.1-6.8,17.6-11.1c4.8,12.8,7.7,26.3,8.5,40
		c-6.4,6.7-13.1,13.1-19.9,20V383.7z M163.3,204.5c6.4,12.2,9.7,25.7,9.7,39.4c0.1,11.7-2.3,23.4-7,34.1c-0.9,2-1.9,3.9-3,5.7
		c-13.9,7.7-29.6,11.6-45.5,11.3c-9.6,0.1-19.1-1.3-28.3-4.1c-11.1-3.1-21.3-8.8-29.8-16.6c-8.9-7.7-14.1-18.7-14.4-30.5
		c0.3-11.7,5.5-22.8,14.4-30.5c16.1-14,36.8-21.4,58.1-20.7C133.5,192.5,149.3,196.6,163.3,204.5z M20.3,191.4
		c14.2-18.2,35.2-29.9,58.1-32.3s45.9,4.4,63.7,19.2c-8.1-1.7-16.3-2.6-24.6-2.6c-25.7-0.5-50.6,8.6-69.9,25.6
		c-12.1,10.9-19.2,26.3-19.7,42.7c0.4,16.3,7.5,31.8,19.7,42.7c10.4,9.6,23,16.7,36.6,20.7c10.8,3.2,22,4.8,33.3,4.8
		c8.2,0,16.4-0.9,24.4-2.6c-15.2,12.8-34.4,19.8-54.3,19.9c-11.1,0.1-22.2-2.1-32.4-6.4C30.5,313,12,291.9,5.1,266.1
		S3.9,212.5,20.3,191.4z M-10.5,482.8c16.5,0,29.9,13.4,29.9,29.9S6,542.6-10.5,542.6c-4.2,0-8.4-0.9-12.3-2.7
		c-0.3-3.3-0.5-6.7-0.5-10.1c0-16.3,3.7-32.3,10.8-46.9h2V482.8z M-19,558.7c2.8,0.6,5.7,0.9,8.5,0.9c24.3-0.1,44.6-18.7,46.6-43
		c2-24.3-14.8-46.1-38.8-50.2c4.4-6,9.4-11.5,15-16.4c1.6-1.5,3.4-2.9,5.3-4.4l2.1,0.9c1,0.4,2,0.7,3.1,0.9L62,457v55.5
		c0,10.2,4.1,20,11.3,27.2c7.2,7.2,17,11.2,27.2,11.2c2.6,0,5.3-0.3,7.9-0.9c13-2.8,23.7-12.2,28.1-24.7c6.7,5.5,15.1,8.5,23.7,8.5
		c11.5,0.1,22.5-5,29.9-13.9c0,3.2,0.4,6.4,0.4,9.6c0,15.8-3.6,31.4-10.4,45.7c-7.1-4.8-15.6-7.3-24.1-7.3
		c-14.9,0.1-28.6,7.9-36.3,20.6s-8.2,28.5-1.4,41.7c-11.2,3.9-23,6-34.9,6c-47.7-0.1-89.6-31.8-102.6-77.7L-19,558.7z M134.1,623.7
		c-2.4-3.9-3.7-8.3-3.8-12.9c0-14.1,11.5-25.6,25.6-25.6c5.5,0,10.8,1.8,15.2,5c-9.6,13.9-22.3,25.4-37.2,33.5H134.1z M361.2,483.3
		c2.7-0.3,5.3-0.5,8-0.5c8.8,0,17.5,1.7,25.6,4.9c-2.4,7.2-9.5,11.8-17.1,11.1c-9.2,0-17.1-5.9-17.1-12.8
		C360.8,485.1,360.9,484.2,361.2,483.3z M403.9,473.4c-10.9-5-22.7-7.6-34.6-7.6c-4.9,0-9.8,0.5-14.7,1.4h-1.2
		c-6.6,1.3-13,3.3-19.1,6.1l35-66L403.9,473.4z M301,551.1c0-27.8,16.9-52.9,42.7-63.3c2.2,16.9,17.1,29.2,34.1,28.2
		c13.6,0.4,26.2-7.4,31.9-19.7c15.8,11.5,26,29.3,27.8,48.8c-5.4-2.4-11.2-3.6-17.1-3.5c-17.5,0.1-33.2,10.8-39.6,27.2
		s-2.1,34.9,10.8,46.8c-7.2,2.5-14.7,3.8-22.4,3.8C331.6,619.4,301,588.8,301,551.1z M408.5,606.8c-8.8-4.4-14.3-13.5-14.1-23.3
		s5.9-18.7,14.8-22.8s19.4-2.8,27,3.4C432.9,581.4,422.9,596.7,408.5,606.8L408.5,606.8z"/>
	<path id="Shape_28_" class="st6" d="M339.4,524.5c-16.5,0-29.9,13.4-29.9,29.9s13.4,29.9,29.9,29.9s29.9-13.4,29.9-29.9
		C369.3,537.8,355.9,524.5,339.4,524.5z M339.4,567.1c-7.1,0-12.8-5.7-12.8-12.8s5.7-12.8,12.8-12.8s12.8,5.7,12.8,12.8
		C352.2,561.4,346.5,567.1,339.4,567.1z"/>
	<path id="Shape_29_" class="st6" d="M62.1,551.1c-18.9,0-34.1,15.3-34.1,34.1c0,18.9,15.3,34.1,34.1,34.1s34.1-15.3,34.1-34.1
		C96.2,566.4,80.9,551.1,62.1,551.1z M62.1,602.3c-9.4,0-17.1-7.6-17.1-17.1s7.6-17.1,17.1-17.1s17.1,7.6,17.1,17.1
		S71.5,602.3,62.1,602.3z"/>
	<path id="Shape_30_" class="st6" d="M249.8,201.2c-4.7,0-8.5,3.8-8.5,8.5v8.5h-8.5c-4.7,0-8.5,3.8-8.5,8.5s3.8,8.5,8.5,8.5h8.5v8.5
		c0,4.7,3.8,8.5,8.5,8.5c4.7,0,8.5-3.8,8.5-8.5v-8.5h8.5c4.7,0,8.5-3.8,8.5-8.5s-3.8-8.5-8.5-8.5h-8.5v-8.5
		C258.3,205.1,254.5,201.2,249.8,201.2z"/>
	<path id="Shape_31_" class="st6" d="M292.5,414.6v8.5c0,4.7,3.8,8.5,8.5,8.5s8.5-3.8,8.5-8.5v-8.5h8.5c4.7,0,8.5-3.8,8.5-8.5
		s-3.8-8.5-8.5-8.5h-8.5v-8.5c0-4.7-3.8-8.5-8.5-8.5s-8.5,3.8-8.5,8.5v8.5H284c-4.7,0-8.5,3.8-8.5,8.5s3.8,8.5,8.5,8.5H292.5z"/>
	<path id="Shape_32_" class="st6" d="M403.4,150c-4.7,0-8.5,3.8-8.5,8.5v8.5h-8.5c-4.7,0-8.5,3.8-8.5,8.5s3.8,8.5,8.5,8.5h8.5v8.5
		c0,4.7,3.8,8.5,8.5,8.5s8.5-3.8,8.5-8.5V184h8.5c4.7,0,8.5-3.8,8.5-8.5s-3.8-8.5-8.5-8.5h-8.5v-8.5
		C411.9,153.9,408.1,150,403.4,150z"/>
</g>
</svg>
