<?xml version="1.0" encoding="utf-8"?>
<!-- Generator: Adobe Illustrator 19.1.0, SVG Export Plug-In . SVG Version: 6.00 Build 0)  -->
<svg version="1.1" id="Layer_1" xmlns="http://www.w3.org/2000/svg" xmlns:xlink="http://www.w3.org/1999/xlink" x="0px" y="0px"
	 viewBox="0 0 943.2 129.7" style="enable-background:new 0 0 943.2 129.7;" xml:space="preserve">
<style type="text/css">
	.st0{fill:#FFFFFF;}
</style>
<g>
	<path class="st0" d="M44.4,103.1c-9.2,0-19.5-3.1-28.2-9.9l8-12.3c7.1,5.1,14.6,7.8,20.7,7.8c5.4,0,7.8-2,7.8-4.9v-0.2
		c0-4-6.4-5.4-13.6-7.6c-9.2-2.7-19.6-7-19.6-19.7V56c0-13.4,10.8-20.8,24-20.8c8.3,0,17.4,2.8,24.5,7.6L61,55.6
		c-6.5-3.8-13-6.1-17.8-6.1c-4.5,0-6.9,2-6.9,4.5v0.2c0,3.7,6.3,5.4,13.4,7.8c9.2,3.1,19.9,7.5,19.9,19.5v0.2
		C69.5,96.5,58.6,103.1,44.4,103.1z"/>
	<path class="st0" d="M158.8,103.1c-9.9,0-16.1-4.5-20.5-9.8v28.2h-18.6V36.1h18.6v9.4c4.5-6.1,10.8-10.7,20.5-10.7
		c15.3,0,29.9,12,29.9,34v0.2C188.7,91.1,174.4,103.1,158.8,103.1z M170.1,68.9c0-10.9-7.4-18.1-16.1-18.1
		c-8.7,0-15.9,7.2-15.9,18.1v0.2c0,10.9,7.2,18.1,15.9,18.1c8.7,0,16.1-7.1,16.1-18.1V68.9z"/>
	<path class="st0" d="M277.7,101.9v-7.1c-4.5,5-10.8,8.3-19.9,8.3c-12.4,0-22.6-7.1-22.6-20.1v-0.2c0-14.3,10.9-21,26.5-21
		c6.6,0,11.4,1.1,16.1,2.7v-1.1c0-7.7-4.8-12-14.1-12c-7.1,0-12.1,1.3-18.1,3.6L241,40.7c7.2-3.2,14.3-5.3,25.5-5.3
		c20.4,0,29.3,10.5,29.3,28.3v38.1H277.7z M278.1,75.4c-3.2-1.5-7.4-2.5-11.9-2.5c-8,0-12.9,3.2-12.9,9.1v0.2c0,5,4.2,8,10.2,8
		c8.7,0,14.6-4.8,14.6-11.5V75.4z"/>
	<path class="st0" d="M379.6,103.3c-19.7,0-34.2-15.2-34.2-34v-0.2c0-18.8,14.3-34.2,34.5-34.2c12.4,0,20.1,4.2,26.2,11l-11.4,12.3
		c-4.2-4.4-8.3-7.2-15-7.2c-9.3,0-15.9,8.2-15.9,17.9v0.2c0,10.1,6.5,18.1,16.7,18.1c6.3,0,10.5-2.7,15.1-7l10.9,11
		C400.1,98.3,392.8,103.3,379.6,103.3z"/>
	<path class="st0" d="M514.6,75.5h-45.7c1.8,8.5,7.7,12.9,16.1,12.9c6.3,0,10.8-2,15.9-6.7l10.7,9.4c-6.1,7.6-15,12.3-26.9,12.3
		c-19.7,0-34.3-13.9-34.3-34v-0.2c0-18.8,13.4-34.2,32.5-34.2c21.9,0,32,17,32,35.7v0.2C514.9,72.7,514.8,73.8,514.6,75.5z
		 M482.9,49.9c-7.7,0-12.8,5.5-14.2,14h28.1C495.6,55.5,490.7,49.9,482.9,49.9z"/>
	<path class="st0" d="M563.9,121.9c-3.4,0-5.5-0.2-8.1-0.7v-14.6c1.5,0.2,2.6,0.4,3.9,0.4c3.9,0,6.6-2.1,6.6-7.6V36.1H585v64.6
		C585,115.2,577.7,121.9,563.9,121.9z M565.9,28.9V12.4h19.6v16.6H565.9z"/>
	<path class="st0" d="M671.6,103.3c-20.4,0-35.4-15.1-35.4-34v-0.2c0-18.9,15.2-34.2,35.7-34.2c20.4,0,35.4,15.1,35.4,34v0.2
		C707.3,88,692.1,103.3,671.6,103.3z M688.9,69.1c0-9.7-7-18.1-17.3-18.1c-10.7,0-17,8.2-17,17.9v0.2c0,9.7,7,18.1,17.3,18.1
		c10.7,0,17-8.2,17-17.9V69.1z"/>
	<path class="st0" d="M796.7,103.1c-9.9,0-16.1-4.5-20.5-9.8v8.6h-18.6V12.4h18.6v33.2c4.5-6.1,10.8-10.7,20.5-10.7
		c15.3,0,29.9,12,29.9,34v0.2C826.6,91.1,812.2,103.1,796.7,103.1z M807.9,68.9c0-10.9-7.4-18.1-16.1-18.1s-15.9,7.2-15.9,18.1v0.2
		c0,10.9,7.2,18.1,15.9,18.1s16.1-7.1,16.1-18.1V68.9z"/>
	<path class="st0" d="M900.1,103.1c-9.2,0-19.5-3.1-28.2-9.9l8-12.3c7.1,5.1,14.6,7.8,20.7,7.8c5.4,0,7.8-2,7.8-4.9v-0.2
		c0-4-6.4-5.4-13.6-7.6c-9.2-2.7-19.6-7-19.6-19.7V56c0-13.4,10.8-20.8,24-20.8c8.3,0,17.4,2.8,24.5,7.6l-7.1,12.9
		c-6.5-3.8-13-6.1-17.8-6.1c-4.5,0-6.9,2-6.9,4.5v0.2c0,3.7,6.3,5.4,13.4,7.8c9.2,3.1,19.9,7.5,19.9,19.5v0.2
		C925.3,96.5,914.4,103.1,900.1,103.1z"/>
</g>
</svg>
